<?xml version="1.0" standalone="no"?>
<!DOCTYPE svg PUBLIC "-//W3C//DTD SVG 20010904//EN"
 "http://www.w3.org/TR/2001/REC-SVG-20010904/DTD/svg10.dtd">
<svg version="1.0" xmlns="http://www.w3.org/2000/svg"
 width="500.000000pt" height="331.000000pt" viewBox="0 0 500.000000 331.000000"
 preserveAspectRatio="xMidYMid meet">
<metadata>
Created by potrace 1.16, written by Peter Selinger 2001-2019
</metadata>
<g transform="translate(0.000000,331.000000) scale(0.100000,-0.100000)"
fill="#000000" stroke="none">
<path d="M1329 2733 c-527 -531 -919 -929 -1132 -1148 l-136 -140 -1 -131 c0
-72 3 -220 7 -328 l6 -198 231 3 231 3 6 -115 c4 -63 8 -198 9 -301 1 -102 5
-189 8 -193 4 -4 12 132 17 302 l10 308 1263 0 1262 0 0 150 c0 83 3 227 7
320 l6 170 -651 655 -651 655 -127 -130 c-70 -71 -289 -294 -488 -495 -199
-201 -433 -438 -520 -527 l-159 -162 4 -293 c4 -274 3 -293 -13 -292 -10 0
-101 1 -203 2 l-186 2 1 280 2 279 426 418 c235 230 611 600 835 823 224 223
412 405 417 405 5 0 339 -328 742 -730 404 -401 790 -785 859 -853 l126 -123
308 278 c170 153 330 297 356 320 l47 43 271 -275 c149 -152 271 -280 271
-285 0 -5 -48 -11 -107 -12 l-107 -3 2 -250 c2 -137 5 -268 8 -291 5 -41 5
-41 -33 -47 -21 -4 -81 -7 -133 -8 -78 -1 -88 -3 -55 -10 22 -4 85 -8 141 -8
l101 -1 6 68 c4 37 7 165 7 284 l0 217 155 3 156 3 -332 360 c-183 198 -337
361 -343 363 -6 1 -168 -135 -361 -302 l-350 -304 -865 864 -866 865 -485
-488z m1366 -990 l350 -342 3 -274 4 -274 -188 -6 c-262 -9 -2272 -9 -2277 1
-2 4 -2 130 1 280 l5 273 191 187 c105 102 328 322 496 488 168 166 358 353
423 416 l119 115 262 -261 c144 -144 419 -415 611 -603z"/>
<path d="M730 627 c-14 -7 -31 -24 -38 -39 -18 -38 1 -71 60 -103 56 -31 63
-60 13 -60 -23 0 -31 5 -33 23 -6 38 -39 28 -47 -14 -8 -46 2 -54 76 -54 72 0
109 25 109 75 0 36 -24 62 -79 85 -37 15 -46 37 -21 50 25 13 50 3 50 -21 0
-25 26 -24 40 0 15 29 12 58 -6 65 -27 10 -98 6 -124 -7z"/>
<path d="M980 627 c-31 -16 -49 -50 -42 -83 3 -18 20 -34 59 -56 61 -34 69
-63 18 -63 -23 0 -31 5 -33 23 -6 38 -39 28 -47 -14 -8 -46 2 -54 76 -54 72 0
109 25 109 75 0 36 -24 62 -80 85 -32 13 -41 44 -15 54 23 8 45 -4 45 -25 0
-12 7 -19 20 -19 14 0 21 9 26 34 3 19 3 39 -1 45 -9 15 -105 13 -135 -2z"/>
<path d="M1340 627 c-13 -7 -35 -28 -48 -47 -20 -29 -23 -44 -19 -89 3 -46 9
-59 36 -83 27 -24 40 -28 89 -28 70 0 78 5 87 53 7 35 6 37 -18 37 -17 0 -28
-7 -32 -19 -9 -28 -42 -36 -64 -16 -39 34 -31 147 10 158 30 8 47 -1 51 -26 2
-14 10 -22 23 -22 25 0 46 72 24 86 -21 13 -110 11 -139 -4z"/>
<path d="M1608 622 c-50 -31 -74 -121 -47 -175 27 -52 50 -67 105 -67 42 0 59
5 83 26 58 49 64 153 10 206 -22 23 -36 28 -76 28 -27 0 -60 -8 -75 -18z"/>
<path d="M1850 629 c0 -7 7 -17 16 -24 23 -16 20 -166 -3 -201 l-15 -24 61 0
c48 0 61 3 61 15 0 8 -6 15 -14 15 -8 0 -17 8 -20 18 -8 24 -4 92 5 92 4 0 29
-34 54 -75 26 -41 53 -75 60 -75 41 0 45 9 45 115 0 79 3 105 15 115 31 26 17
40 -40 40 -56 0 -70 -12 -39 -34 11 -9 14 -26 12 -66 l-3 -55 -49 78 -48 77
-49 0 c-30 0 -49 -4 -49 -11z"/>
<path d="M2220 627 c-14 -7 -31 -24 -38 -39 -19 -41 -1 -73 58 -103 57 -29 65
-58 18 -63 -22 -3 -29 2 -34 23 -9 36 -36 28 -48 -13 -12 -43 0 -52 75 -52 72
0 109 25 109 75 0 36 -24 62 -79 85 -37 15 -46 37 -21 50 25 13 50 3 50 -21 0
-12 7 -19 20 -19 14 0 21 9 26 34 3 19 3 39 -1 45 -9 15 -105 13 -135 -2z"/>
<path d="M2417 633 c-4 -3 -7 -26 -7 -50 0 -52 21 -58 45 -13 26 51 35 35 35
-61 0 -82 -2 -91 -20 -96 -11 -3 -20 -12 -20 -19 0 -11 18 -14 75 -14 57 0 75
3 75 14 0 7 -9 16 -20 19 -18 5 -20 14 -20 96 0 50 4 91 8 91 14 0 32 -24 32
-43 0 -13 5 -17 16 -13 9 3 18 6 20 6 2 0 4 20 4 45 l0 45 -108 0 c-60 0 -112
-3 -115 -7z"/>
<path d="M2686 625 c-3 -9 0 -15 9 -15 22 0 22 -188 0 -196 -8 -4 -15 -12 -15
-20 0 -10 15 -14 60 -14 47 0 60 3 60 15 0 8 -4 15 -10 15 -5 0 -10 16 -10 35
0 47 17 44 39 -8 24 -56 41 -69 80 -61 28 6 46 34 21 34 -17 0 -67 83 -52 88
21 7 43 60 36 87 -9 38 -52 55 -137 55 -57 0 -76 -4 -81 -15z"/>
<path d="M2980 626 c0 -8 5 -18 10 -21 6 -3 10 -44 10 -89 0 -69 4 -88 21
-110 17 -22 28 -26 72 -26 84 1 107 33 107 150 0 38 5 72 10 75 6 3 10 13 10
21 0 10 -13 14 -50 14 -52 0 -61 -10 -35 -36 18 -18 21 -118 5 -159 -15 -38
-60 -32 -72 10 -9 34 0 143 13 151 5 3 9 12 9 20 0 10 -14 14 -55 14 -41 0
-55 -4 -55 -14z"/>
<path d="M3340 627 c-13 -7 -35 -28 -48 -47 -20 -29 -23 -44 -19 -89 3 -46 9
-59 36 -83 27 -24 40 -28 89 -28 70 0 78 5 87 53 7 35 6 37 -18 37 -17 0 -28
-7 -32 -19 -9 -28 -42 -36 -65 -16 -39 35 -31 147 11 158 30 8 47 -1 51 -26 2
-14 10 -22 23 -22 25 0 46 72 24 86 -21 13 -110 11 -139 -4z"/>
<path d="M3537 633 c-4 -3 -7 -26 -7 -50 0 -35 3 -43 18 -43 10 0 22 12 29 30
21 56 33 34 33 -61 0 -82 -2 -91 -20 -96 -11 -3 -20 -12 -20 -19 0 -11 18 -14
75 -14 57 0 75 3 75 14 0 7 -9 16 -20 19 -18 5 -20 14 -20 96 0 50 4 91 8 91
14 0 32 -24 32 -43 0 -13 5 -17 16 -13 9 3 18 6 20 6 2 0 4 20 4 45 l0 45
-108 0 c-60 0 -112 -3 -115 -7z"/>
<path d="M3807 633 c-12 -11 -8 -23 8 -23 12 0 15 -17 15 -94 0 -71 -4 -97
-15 -106 -8 -7 -15 -17 -15 -22 0 -14 123 -5 128 10 2 6 -3 12 -12 12 -23 0
-24 181 -1 200 8 7 15 16 15 21 0 10 -113 12 -123 2z"/>
<path d="M4038 622 c-69 -42 -78 -164 -17 -221 35 -32 117 -29 158 5 58 49 64
153 10 206 -22 23 -36 28 -76 28 -27 0 -60 -8 -75 -18z"/>
<path d="M4280 626 c0 -8 7 -16 15 -20 22 -8 21 -167 -2 -202 l-16 -25 58 3
c36 2 60 8 63 16 2 6 -3 12 -12 12 -17 0 -30 50 -24 96 3 27 6 25 52 -46 62
-96 59 -92 90 -84 l26 6 0 103 c0 79 3 105 15 115 31 26 17 40 -40 40 -56 0
-70 -12 -39 -34 11 -9 14 -26 12 -66 l-3 -55 -49 78 -48 77 -49 0 c-35 0 -49
-4 -49 -14z"/>
</g>
</svg>
