<?xml version="1.0" encoding="UTF-8"?>
<svg version="1.1" xmlns="http://www.w3.org/2000/svg" width="500" height="331">
<path d="M0 0 C165 0 330 0 500 0 C500 109.23 500 218.46 500 331 C335 331 170 331 0 331 C0 221.77 0 112.54 0 0 Z " fill="#FDFDFD" transform="translate(0,0)"/>
<path d="M0 0 C3.40490575 1.13496858 4.37622636 2.58475556 6.546875 5.32421875 C8.07752801 7.0894073 9.69804769 8.51534799 11.5 10 C14.79871412 12.73464828 17.30750298 15.66980631 20 19 C22.55612636 21.68720976 25.1199811 24.09748464 28 26.4375 C31 29 31 29 33.4375 31.9375 C35.42360266 34.31113489 37.1533727 36.05883746 39.5 38 C42.76428178 40.70147457 45.28518379 43.74222055 48 47 C49.14846224 48.02085532 50.31621922 49.02031935 51.5 50 C53.79926074 51.903689 55.50354059 53.60683097 57.4375 55.9375 C59.46686047 58.36283324 61.29495681 60.19338776 63.67773438 62.21289062 C67.8829822 65.85063506 71.81331316 69.70136813 75.71875 73.65625 C76.77201477 74.7151947 76.77201477 74.7151947 77.84655762 75.79553223 C80.81383766 78.77897375 83.77505363 81.7684071 86.73681641 84.75732422 C88.91618465 86.95490579 91.09864947 89.14937938 93.28125 91.34375 C93.936698 92.00749634 94.592146 92.67124268 95.26745605 93.35510254 C100.86302288 98.97981109 106.62118508 104.27676659 113.02954102 108.96508789 C119.60826862 114.11320127 124.11667454 118.82513575 125.20654297 127.36669922 C125.65663396 134.74162299 125.3132416 142.06682042 124.9375 149.4375 C124.86213102 152.01868506 124.79371242 154.60008291 124.73242188 157.18164062 C124.62552158 161.62156631 124.46216937 166.05505999 124.25600433 170.49131012 C124.20816724 171.52389529 124.16033015 172.55648046 124.11104345 173.62035608 C124.07439911 174.40563858 124.03775477 175.19092107 124 176 C107.91831016 176.75125169 91.88114965 177.14341171 75.78295898 177.11352539 C73.59210715 177.11324222 71.40125522 177.11340378 69.21040344 177.1139679 C63.35255798 177.11425081 57.49473365 177.10843713 51.63689303 177.10139394 C45.48173049 177.09507497 39.32656727 177.09454993 33.17140198 177.09336853 C21.55579268 177.09028011 9.94019298 177.08210081 -1.67541212 177.07201904 C-14.91636744 177.06077992 -28.15732326 177.05532794 -41.39828217 177.05032361 C-68.59886006 177.03991567 -95.79942949 177.02236523 -123 177 C-122.99930449 176.16675327 -122.99860897 175.33350655 -122.99789238 174.47500992 C-122.99561125 171.34484232 -122.99395507 168.21467515 -122.99270439 165.08450699 C-122.99171838 163.07901226 -122.99002967 161.07351793 -122.98832703 159.06802368 C-122.98613062 152.49662202 -123.01236814 145.92964578 -123.1328125 139.359375 C-123.1328125 137.15624846 -123.1303998 134.95311992 -123.125 132.75 C-123.16109375 131.62078125 -123.1971875 130.4915625 -123.234375 129.328125 C-123.17717883 124.4321328 -123.0287059 121.26544529 -119.87402344 117.38476562 C-117.33958636 115.10330204 -114.71093345 113.06571221 -112 111 C-110.30635255 109.36075814 -108.64105026 107.69189527 -107 106 C-106.04829408 105.04033821 -105.09518823 104.08206321 -104.14086914 103.125 C-103.64007339 102.62097656 -103.13927765 102.11695313 -102.62330627 101.59765625 C-100.3654159 99.32625077 -98.10474481 97.0576207 -95.84399414 94.7890625 C-94.65722243 93.597249 -93.47134801 92.40454133 -92.28637695 91.2109375 C-90.55920286 89.47155131 -88.8287455 87.73548872 -87.09765625 86 C-86.57559097 85.47277344 -86.0535257 84.94554687 -85.51564026 84.40234375 C-82.16696248 81.05316408 -78.64441473 78.03038533 -75 75 C-73.32167862 73.34507012 -71.65634036 71.67692938 -70 70 C-69.16708939 69.16264816 -68.33417877 68.32529633 -67.47602844 67.46257019 C-66.14271736 66.12021049 -66.14271736 66.12021049 -64.7824707 64.75073242 C-59.77400754 59.70976067 -54.76059541 54.6737426 -49.74424458 49.64062023 C-46.7154424 46.60132658 -43.68856229 43.56016594 -40.66577148 40.51489258 C-37.73364331 37.56110517 -34.79671887 34.61216742 -31.85634422 31.66658974 C-30.73700049 30.54354407 -29.61942166 29.41873653 -28.50362587 28.29216576 C-26.95011463 26.72422754 -25.39054985 25.16256796 -23.8293457 23.60229492 C-22.94285843 22.71136642 -22.05637115 21.82043793 -21.14302063 20.9025116 C-19 19 -19 19 -17 19 C-16.505 17.515 -16.505 17.515 -16 16 C-15.34 16 -14.68 16 -14 16 C-13.79375 15.443125 -13.5875 14.88625 -13.375 14.3125 C-11.84631641 11.74153214 -9.99311638 10.27320749 -7.6640625 8.4375 C-4.76800864 5.93574455 -2.40798528 2.96301735 0 0 Z " fill="#FDFDFD" transform="translate(181,70)"/>
<path d="M0 0 C3.4164685 1.47399688 5.62156536 3.38344532 8.23022461 6.01904297 C9.05465561 6.84685272 9.87908661 7.67466248 10.72850037 8.52755737 C11.61086868 9.42338531 12.493237 10.31921326 13.40234375 11.2421875 C14.80001198 12.64780362 16.19768281 14.05341717 17.59550571 15.45887947 C19.55099979 17.42749486 21.50191912 19.40061336 23.45281982 21.3737793 C26.86085903 24.81978679 30.27364723 28.26107458 33.69007874 31.69876099 C35.5070241 33.5279261 37.32128945 35.35975816 39.1325531 37.19454956 C39.96013626 38.02866364 40.78771942 38.86277771 41.64038086 39.72216797 C42.72481728 40.81898392 42.72481728 40.81898392 43.8311615 41.93795776 C46.11670593 44.11095919 48.5274648 46.04479888 51 48 C52.03609396 49.11330289 53.04066594 50.25741009 54 51.4375 C57.36018276 55.45771866 60.85389624 59.07336292 64.9375 62.375 C67.1892661 64.20849911 69.02932821 66.13418438 70.875 68.375 C73.68346042 71.77471524 76.83609924 74.53101807 80.19140625 77.37890625 C82.42091908 79.37728168 84.13938651 81.65922819 86 84 C87.08804629 84.95616189 88.19408992 85.89203861 89.3125 86.8125 C91.88765241 88.9487218 94.09532991 91.165333 96.25624084 93.71789551 C99.86467101 97.89382538 103.67591833 101.81053551 107.58764648 105.70117188 C108.31043289 106.42410431 109.0332193 107.14703674 109.77790833 107.89187622 C112.13993791 110.2532156 114.50547713 112.61100465 116.87109375 114.96875 C118.52040633 116.61619522 120.16949657 118.26386306 121.81837463 119.91174316 C126.13811672 124.22768507 130.46085453 128.54061417 134.78424072 132.85290527 C139.20369041 137.26208686 143.62027598 141.67413536 148.03710938 146.0859375 C156.68861856 154.72675349 165.34329788 163.36438671 174 172 C175.26436325 171.0644211 176.52695514 170.1264481 177.78881836 169.1875 C178.49211777 168.66542969 179.19541718 168.14335937 179.92002869 167.60546875 C182.97412193 165.2481039 185.76540115 162.65245832 188.5625 160 C189.68417238 158.9523499 190.8065617 157.90546683 191.9296875 156.859375 C192.72197754 156.11977539 192.72197754 156.11977539 193.53027344 155.36523438 C201.45922747 148 201.45922747 148 204 148 C204.33 147.01 204.66 146.02 205 145 C206.93359375 143.2734375 206.93359375 143.2734375 209.4375 141.375 C213.06649745 138.55531022 216.54698159 135.66504168 219.9375 132.5625 C224.29223858 128.59059558 228.79245779 124.84725456 233.38671875 121.15625 C236.4720829 118.61047868 239.37825333 115.9045054 242.24609375 113.1171875 C244 112 244 112 245.97265625 112.0546875 C248.68677896 113.32023219 250.05800982 114.96963274 252 117.25 C255.54654867 121.33056255 259.1347149 125.35089102 262.8125 129.3125 C263.83995827 130.42307114 264.86730085 131.53374933 265.89453125 132.64453125 C266.40838379 133.19963379 266.92223633 133.75473633 267.45166016 134.32666016 C269.47151841 136.50958486 271.4887172 138.69495567 273.50561523 140.88061523 C274.50623906 141.96493771 275.50705455 143.04908335 276.50805664 144.13305664 C278.96107592 146.78946797 281.4123092 149.44747764 283.859375 152.109375 C284.82282908 153.15633061 285.78637144 154.20320498 286.75 155.25 C287.22888672 155.77086182 287.70777344 156.29172363 288.20117188 156.82836914 C291.16399833 160.04114795 294.15670148 163.22297742 297.171875 166.38671875 C297.88891602 167.14114258 298.60595703 167.89556641 299.34472656 168.67285156 C300.74910866 170.14850271 302.15714111 171.62069106 303.56933594 173.08886719 C304.21676758 173.76981445 304.86419922 174.45076172 305.53125 175.15234375 C306.39073242 176.0494104 306.39073242 176.0494104 307.26757812 176.96459961 C309.40013206 179.47011006 311.17492939 182.26239408 313 185 C302.77 185 292.54 185 282 185 C282 203.81 282 222.62 282 242 C272.1 242 262.2 242 252 242 C252 241.34 252 240.68 252 240 C260.58 240 269.16 240 278 240 C278 220.2 278 200.4 278 180 C285.26 180 292.52 180 300 180 C298.35 178.35 296.7 176.7 295 175 C293.66666667 173.33333333 292.33333333 171.66666667 291 170 C289.34531835 168.31962803 287.67841583 166.65637253 286 165 C284.82705158 163.83318812 283.65455934 162.66591755 282.48242188 161.49829102 C281.83825317 160.85735001 281.19408447 160.216409 280.53039551 159.55604553 C277.61787805 156.65695766 274.70804916 153.75517746 271.79833984 150.85327148 C270.2670082 149.32698246 268.73478215 147.80159026 267.20166016 146.27709961 C264.97580118 144.06341815 262.75323016 141.84648021 260.53125 139.62890625 C259.51073547 138.61613365 259.51073547 138.61613365 258.46960449 137.582901 C255.56887171 134.68250834 252.76482265 131.78776015 250.1784668 128.60131836 C248.21265319 125.91810227 248.21265319 125.91810227 245.61328125 124.75 C241.32668793 125.16007769 239.12172967 128.03397589 236.1875 131 C234.93301516 132.2181934 233.67781306 133.43564864 232.421875 134.65234375 C231.52758789 135.53188721 231.52758789 135.53188721 230.61523438 136.42919922 C228.78095642 138.21301789 226.88437985 139.90266013 224.9375 141.5625 C221.38247798 144.62822867 217.94134254 147.80815723 214.5 151 C210.38007114 154.81987145 206.23777443 158.59835102 201.98046875 162.265625 C198.62709202 165.20230995 195.37002102 168.2466833 192.1015625 171.27734375 C190 173 190 173 188 173 C188 173.66 188 174.32 188 175 C186.3203125 176.7265625 186.3203125 176.7265625 184.125 178.625 C183.40570313 179.25664062 182.68640625 179.88828125 181.9453125 180.5390625 C180 182 180 182 178 182 C177.67 182.99 177.34 183.98 177 185 C174.89794922 185.86352539 174.89794922 185.86352539 172 186 C169.60697228 184.13294425 167.69597258 182.37135732 165.6328125 180.18359375 C165.03499969 179.57491959 164.43718689 178.96624542 163.82125854 178.33912659 C161.90790436 176.38555151 160.01612818 174.41257676 158.125 172.4375 C156.23697209 170.49175417 154.34470055 168.5502638 152.45016479 166.6108551 C151.27333232 165.40332273 150.10092605 164.1914542 148.93386841 162.97447205 C145.62751007 159.54993109 142.21331971 156.38697809 138.53610229 153.36219788 C137 152 137 152 134.5625 149.0625 C132.59292319 146.70861551 130.90696261 144.99502617 128.59655762 143.05821228 C122.74799428 137.99574744 117.34959354 132.48120336 111.89257812 127.00610352 C110.68965798 125.80290083 109.48651667 124.59991922 108.28317261 123.3971405 C105.03770596 120.15195923 101.79531863 116.90371735 98.55349922 113.65489316 C95.1573813 110.25249825 91.75840653 106.8529597 88.35974121 103.45310974 C81.93354114 97.02380912 75.50989313 90.591965 69.08717108 84.15919012 C61.77109296 76.83191112 54.45215454 69.507492 47.1329813 62.18330491 C32.08548228 47.12537042 17.04155668 32.06387021 2 17 C-2.25051247 18.9450095 -5.14076438 21.88141056 -8.38574219 25.17456055 C-9.33294632 26.12373604 -9.33294632 26.12373604 -10.29928589 27.09208679 C-12.38644829 29.1857408 -14.46654354 31.28627905 -16.546875 33.38671875 C-18.0012184 34.8473361 -19.45608052 36.30743713 -20.91143799 37.76704407 C-24.74636327 41.61527914 -28.57569283 45.4690306 -32.40344238 49.32440186 C-38.51432699 55.47836115 -44.63181004 61.62574126 -50.75272369 67.76972389 C-52.88208187 69.90923587 -55.00795064 72.05216929 -57.13348389 74.19548035 C-58.45442902 75.52326203 -59.77548846 76.85093 -61.09667969 78.1784668 C-61.67878204 78.76730652 -62.2608844 79.35614624 -62.86062622 79.96282959 C-66.50571283 83.61777203 -70.29324636 87.04849138 -74.19735336 90.42473507 C-76.28974839 92.2532002 -78.27998612 94.15951998 -80.24121094 96.12768555 C-80.96846375 96.85501389 -81.69571655 97.58234222 -82.44500732 98.33171082 C-83.57824432 99.47268974 -83.57824432 99.47268974 -84.734375 100.63671875 C-85.53482239 101.43858109 -86.33526978 102.24044342 -87.15997314 103.06660461 C-89.69236254 105.60454248 -92.22123869 108.14594767 -94.75 110.6875 C-96.46200644 112.40452937 -98.17424395 114.12132838 -99.88671875 115.83789062 C-103.64933183 119.61027894 -107.40973826 123.38485064 -111.16815186 127.16142273 C-112.07491669 128.07151848 -112.07491669 128.07151848 -113 129 C-113.66105743 129.67161667 -114.32211487 130.34323334 -115.00320435 131.03520203 C-116.83503819 132.83768163 -118.71450755 134.51319114 -120.67236328 136.17626953 C-125.41468193 140.29775764 -129.82400714 144.71599135 -134.2421875 149.1796875 C-135.09177032 150.03305695 -135.94135315 150.88642639 -136.81668091 151.76565552 C-139.5052412 154.4663433 -142.19051304 157.17026368 -144.875 159.875 C-148.43205324 163.45857014 -151.99235333 167.03886787 -155.5546875 170.6171875 C-156.37234589 171.44314423 -157.19000427 172.26910095 -158.03244019 173.12008667 C-158.78727692 173.87822662 -159.54211365 174.63636658 -160.31982422 175.41748047 C-160.98408417 176.08697723 -161.64834412 176.756474 -162.33273315 177.44625854 C-164 179 -164 179 -166 180 C-166.33 198.81 -166.66 217.62 -167 237 C-153.8 237 -140.6 237 -127 237 C-127.45246094 231.06386719 -127.45246094 231.06386719 -127.9140625 225.0078125 C-130.59307073 179.92710639 -130.59307073 179.92710639 -121.421875 168.5390625 C-116.34254353 162.8347724 -110.25077872 158.26059567 -103.91308594 154.04492188 C-100.8256645 151.87762034 -98.58243127 149.67604608 -96.33056641 146.67675781 C-94.41037473 144.25696397 -92.19298905 142.17511509 -90 140 C-89.09414154 139.09636215 -88.18828308 138.1927243 -87.25497437 137.26170349 C-86.25252339 136.26225722 -85.25005031 135.26283313 -84.24755859 134.26342773 C-78.64592802 128.67810162 -73.04681481 123.09025909 -67.44914818 117.50096035 C-64.06897888 114.12602507 -60.68787366 110.7520382 -57.3046875 107.38012695 C-54.02236958 104.10867356 -50.74250029 100.83478359 -47.46431351 97.55919075 C-46.21727151 96.31399372 -44.96935095 95.06967589 -43.72053146 93.82626152 C-41.97590047 92.08889027 -40.23442486 90.34841381 -38.49365234 88.60717773 C-37.9793013 88.09642197 -37.46495026 87.5856662 -36.93501282 87.05943298 C-34.88833573 85.00685145 -32.99446438 82.99242811 -31.28164673 80.64955139 C-30.85870331 80.10519943 -30.43575989 79.56084747 -30 79 C-29.34 79 -28.68 79 -28 79 C-27.79584473 78.46987305 -27.59168945 77.93974609 -27.38134766 77.39355469 C-25.41603509 73.98812443 -22.68177691 71.43695083 -19.8984375 68.703125 C-19.30197418 68.10949158 -18.70551086 67.51585815 -18.0909729 66.90423584 C-16.1903019 65.01473373 -14.28278526 63.13231608 -12.375 61.25 C-11.08287532 59.96790935 -9.79120324 58.68536239 -8.5 57.40234375 C-5.33855521 54.26291568 -2.1709539 51.12982199 1 48 C4.28524673 49.43572429 6.44089716 51.20168679 8.95483398 53.74365234 C10.1013871 54.89527359 10.1013871 54.89527359 11.27110291 56.07015991 C12.08784988 56.90036652 12.90459686 57.73057312 13.74609375 58.5859375 C14.59422134 59.43926666 15.44234894 60.29259583 16.31617737 61.17178345 C19.02806836 63.90149214 21.73319505 66.63777726 24.4375 69.375 C27.13907007 72.10422791 29.84209223 74.83197588 32.54811096 77.55679321 C34.23151744 79.25240921 35.91224341 80.95069169 37.58995056 82.65194702 C41.2474916 86.34061045 44.85952589 89.84570351 49 93 C50.20163834 94.28055951 51.37082464 95.59260953 52.5 96.9375 C55.18844902 100.12686287 58.04099067 103.05950731 61 106 C61.7967514 106.79453079 62.59350281 107.58906158 63.41439819 108.40766907 C64.67179306 109.66053963 64.67179306 109.66053963 65.95458984 110.9387207 C70.71003635 115.67782476 75.46293808 120.41947229 80.21439171 125.16257954 C83.0787759 128.02174857 85.94408828 130.87997449 88.81152344 133.73608398 C91.60112518 136.51474454 94.3882084 139.29590928 97.17363358 142.07875633 C98.22756869 143.13086067 99.28237526 144.18209287 100.33811569 145.23238564 C105.58114092 150.44941805 110.7559477 155.66441152 115.47624207 161.36811829 C117.1560878 163.16716358 118.93457738 164.48293188 120.96484375 165.8671875 C126.78202719 170.07706657 131.25473214 174.23757406 132.69580078 181.51269531 C133.37397905 190.16887243 132.88019879 198.78672236 132.2890625 207.43652344 C131.89325947 213.31905146 131.76423551 219.20300678 131.62304688 225.09619141 C131.52822069 228.93063818 131.38732429 232.76268718 131.24230957 236.59555054 C131.17436565 238.39630319 131.17436565 238.39630319 131.10504913 240.23343468 C131.07038292 241.14640123 131.03571671 242.05936779 131 243 C103.7761888 243.04094324 76.55359181 242.92758956 49.33013487 242.79807091 C43.28313169 242.76947244 37.23612434 242.74178415 31.18911743 242.71398926 C19.79693008 242.66149223 8.40474657 242.60820552 -2.9874357 242.5546174 C-15.98192815 242.4935319 -28.97642476 242.43335367 -41.97092175 242.37324238 C-68.64728583 242.24982025 -95.32364463 242.12528888 -122 242 C-121.99738159 243.01068542 -121.99476318 244.02137085 -121.99206543 245.06268311 C-121.9828686 248.88950368 -121.97722266 252.71632333 -121.97253418 256.54315186 C-121.97005266 258.18499924 -121.96666636 259.82684556 -121.96228027 261.46868896 C-121.92535231 275.66966137 -122.28274962 289.81522924 -123 304 C-123.66 304 -124.32 304 -125 304 C-125.14635603 298.84873493 -125.28850169 293.69737415 -125.42724609 288.54589844 C-125.47467659 286.80465797 -125.52312963 285.06344496 -125.57275391 283.32226562 C-125.95505956 269.87134822 -126 256.46414604 -126 243 C-141.51 243 -157.02 243 -173 243 C-173.53495258 222.13684919 -173.53495258 222.13684919 -173.734375 211.90234375 C-173.85859344 205.67404306 -174.05613619 199.47085275 -174.453125 193.25390625 C-175.32416802 177.32403127 -175.32416802 177.32403127 -170.30761719 171.71459961 C-168.03109326 169.57970789 -165.54377045 167.80226652 -163 166 C-158.96450474 162.17052102 -155.37653694 158.02068287 -151.76953125 153.79296875 C-151.18558594 153.20128906 -150.60164063 152.60960937 -150 152 C-149.34 152 -148.68 152 -148 152 C-147.75191086 151.42626648 -147.50382172 150.85253296 -147.24821472 150.26141357 C-145.80788142 147.65193524 -144.14711516 145.91400793 -142.02856445 143.81738281 C-141.21043777 143.00263489 -140.3923111 142.18788696 -139.5493927 141.34844971 C-138.66297592 140.47549255 -137.77655914 139.6025354 -136.86328125 138.703125 C-135.46816115 137.31595494 -134.07304377 135.92878214 -132.67808056 134.54145432 C-130.72209932 132.5985963 -128.76162068 130.66030775 -126.80108643 128.7220459 C-123.39019258 125.34905243 -119.98389247 121.97143834 -116.5813446 118.59002686 C-114.77214595 116.79297047 -112.96028103 114.99859306 -111.14533997 113.20733643 C-110.31145248 112.37997986 -109.477565 111.55262329 -108.6184082 110.70019531 C-107.89385941 109.98389954 -107.16931061 109.26760376 -106.42280579 108.52960205 C-104.43628445 106.45551568 -102.55142496 104.34845672 -100.67488098 102.17686462 C-97.13654047 98.10511052 -93.40726504 94.27257603 -89.58349609 90.4699707 C-88.87849472 89.7648233 -88.17349335 89.0596759 -87.4471283 88.3331604 C-85.14159663 86.02831916 -82.83255362 83.7270309 -80.5234375 81.42578125 C-78.90852288 79.81273488 -77.29383124 78.19946522 -75.67935181 76.58598328 C-71.44536859 72.35580131 -67.20839245 68.12862966 -62.97076416 63.90209961 C-58.66099083 59.60256135 -54.35404804 55.30018976 -50.046875 50.99804688 C-43.09215427 44.05209714 -36.13571167 37.10787758 -29.17701721 30.16590881 C-27.98503906 28.97675002 -26.79316692 27.78748494 -25.60142612 26.59808826 C-24.56835201 25.56716739 -23.53493693 24.53658804 -22.50110531 23.50642681 C-20.33493177 21.34568732 -18.20422438 19.17777109 -16.17578125 16.88671875 C-15.70462891 16.36142578 -15.23347656 15.83613281 -14.74804688 15.29492188 C-13.77610838 14.20661523 -12.80744681 13.11537468 -11.84179688 12.02148438 C-10.60114589 10.64393397 -9.30457158 9.31717614 -8 8 C-7.34 8 -6.68 8 -6 8 C-5.7525 7.4225 -5.505 6.845 -5.25 6.25 C-3.83316683 3.6997003 -2.12372463 1.98214299 0 0 Z M1 61 C-0.56648858 62.58737399 -0.56648858 62.58737399 -2.1875 64.625 C-5.1100663 68.08787267 -8.15830902 70.97510908 -11.71484375 73.7734375 C-12.13894531 74.17820312 -12.56304687 74.58296875 -13 75 C-13 75.66 -13 76.32 -13 77 C-14.485 77.495 -14.485 77.495 -16 78 C-16 78.66 -16 79.32 -16 80 C-16.55760513 80.23228806 -17.11521027 80.46457611 -17.68971252 80.7039032 C-20.60511824 82.33947802 -22.6055775 84.36640458 -24.96459961 86.73754883 C-25.44483078 87.21748795 -25.92506195 87.69742706 -26.41984558 88.19190979 C-28.00213353 89.77558787 -29.57721961 91.36623055 -31.15234375 92.95703125 C-32.25522254 94.06364415 -33.35854668 95.16981338 -34.46229553 96.27555847 C-37.36641257 99.18730428 -40.26448034 102.10499914 -43.16131592 105.02398682 C-46.09809731 107.98115341 -49.04047086 110.93274359 -51.98242188 113.88476562 C-57.16858632 119.09005734 -62.34979786 124.30023446 -67.52745056 129.51399231 C-68.34339188 130.33437485 -69.15933319 131.15475739 -70 132 C-70.87584244 132.88100876 -71.75168488 133.76201752 -72.65406799 134.66972351 C-75.22014381 137.21867468 -77.87961993 139.63683346 -80.5625 142.0625 C-90.93894986 151.53658257 -100.78665417 161.60197513 -110.59375 171.66015625 C-113 174 -113 174 -115.04101562 175.40942383 C-118.38231047 177.85077 -120.62925958 179.62895064 -121.734375 183.71582031 C-122.0218494 187.04185684 -122.05631809 190.28721438 -122 193.625 C-122.01160156 194.68589844 -122.02320313 195.74679688 -122.03515625 196.83984375 C-122.05386457 199.19976521 -122.05224545 201.55991153 -122.03320312 203.91983032 C-121.98094999 210.62794276 -121.99341243 217.33616361 -121.99609375 224.04443359 C-121.9964079 225.40187072 -121.99669295 226.75930786 -121.99694824 228.116745 C-121.99768023 231.41116351 -121.99870537 234.70558166 -122 238 C-93.4865645 238.02344471 -64.97313046 238.0410357 -36.45968723 238.05181217 C-23.21799457 238.05695067 -9.97630793 238.06394633 3.26538086 238.07543945 C14.81774448 238.08546148 26.37010374 238.09187118 37.92247158 238.09408849 C44.02940446 238.09538293 50.13632486 238.09838737 56.24325371 238.10573006 C62.01256954 238.11260942 67.78186797 238.11459322 73.55118752 238.11310768 C75.64829987 238.11337873 77.74541291 238.11531219 79.84252167 238.11920547 C94.91733522 238.14577596 109.94171049 237.70344382 125 237 C125.11930515 235.1975831 125.23818887 233.3951383 125.35689545 231.59268188 C125.42314416 230.58894846 125.48939288 229.58521503 125.55764914 228.55106544 C128.98347546 198.92063084 128.98347546 198.92063084 119.26863098 172.3742218 C115.57672675 168.62488822 111.36124539 165.51257902 106.8359375 162.84960938 C99.85496805 158.29659418 94.0432507 152.17889095 88.2109375 146.2734375 C87.50401764 145.56273102 86.79709778 144.85202454 86.0687561 144.11978149 C83.83503078 141.87396147 81.60460543 139.62490973 79.375 137.375 C76.42742091 134.4007057 73.47646274 131.42982357 70.5234375 128.4609375 C69.85766693 127.78686859 69.19189636 127.11279968 68.50595093 126.41830444 C64.82198284 122.71515481 61.04746215 119.30051527 57 116 C55.96255807 114.86649863 54.9543483 113.70429666 54 112.5 C52.07755157 110.17704148 50.3521148 108.46009567 48 106.5 C45.6478852 104.53990433 43.92244843 102.82295852 42 100.5 C39.26535172 97.20128588 36.33019369 94.69249702 33 92 C30.31279024 89.44387364 27.90251536 86.8800189 25.5625 84 C23.09284885 80.93616895 23.09284885 80.93616895 20.0625 78.5625 C17.14220295 76.11898614 14.92437321 73.6189781 12.515625 70.703125 C11.02710329 69.03045627 9.4912787 67.65316633 7.75 66.25 C5 64 5 64 3 61 C2.34 61 1.68 61 1 61 Z " fill="#0C0C0C" transform="translate(180,9)"/>
<path d="M0 0 C0 3.55955169 -0.89341295 4.27899173 -3 7 C-3 7.66 -3 8.32 -3 9 C-2.34 9 -1.68 9 -1 9 C-1.33 10.32 -1.66 11.64 -2 13 C-2.66 13 -3.32 13 -4 13 C-4.24649292 13.59961044 -4.49298584 14.19922089 -4.74694824 14.81700134 C-6.20225054 17.35234989 -7.65311639 18.2888889 -10.04882812 19.92797852 C-13.72996952 23.06713018 -14.63201778 25.22625783 -15.09179688 30.02709961 C-15.17387751 32.40113944 -15.21392861 34.7768903 -15.21875 37.15234375 C-15.25182251 38.40761368 -15.28489502 39.66288361 -15.31896973 40.95619202 C-15.39941069 44.27284569 -15.44620905 47.58644291 -15.47644043 50.90368652 C-15.51574194 54.29644529 -15.59966057 57.6880789 -15.6796875 61.08007812 C-15.82734622 67.71977607 -15.93068428 74.35904689 -16 81 C-15.08720779 80.99777939 -14.17441559 80.99555878 -13.23396301 80.99327087 C-4.4868926 80.97294802 4.26016951 80.95786692 13.00725842 80.94818783 C17.50053632 80.94304395 21.99379418 80.93610815 26.48706055 80.92456055 C43.97234029 80.88088137 61.44823774 80.86215573 78.92578125 81.44140625 C80.13501755 81.48039536 81.34425385 81.51938446 82.59013367 81.55955505 C90.74169905 81.87084953 90.74169905 81.87084953 93 83 C94.60201051 83.1023462 96.20819673 83.14215806 97.81344604 83.15148926 C99.33924789 83.16400475 99.33924789 83.16400475 100.89587402 83.17677307 C102.01675415 83.18095749 103.13763428 83.18514191 104.29248047 83.18945312 C106.05889389 83.20189308 106.05889389 83.20189308 107.86099243 83.21458435 C111.1017745 83.23659674 114.34254829 83.25428984 117.58336401 83.27039146 C120.99067234 83.288583 124.39793481 83.31303288 127.8052063 83.33703613 C135.75889763 83.39209 143.71262334 83.440117 151.66636658 83.48697662 C161.72410241 83.54628283 171.78181834 83.60727766 181.83948433 83.67754889 C186.51950604 83.70994381 191.19953608 83.73557285 195.87960815 83.7598877 C209.61337867 83.84527734 223.29132262 84.14662882 237 85 C237 85.33 237 85.66 237 86 C209.7761888 86.04094324 182.55359181 85.92758956 155.33013487 85.79807091 C149.28313169 85.76947244 143.23612434 85.74178415 137.18911743 85.71398926 C125.79693008 85.66149223 114.40474657 85.60820552 103.0125643 85.5546174 C90.01807185 85.4935319 77.02357524 85.43335367 64.02907825 85.37324238 C37.35271417 85.24982025 10.67635537 85.12528888 -16 85 C-15.99738159 86.01068542 -15.99476318 87.02137085 -15.99206543 88.06268311 C-15.9828686 91.88950368 -15.97722266 95.71632333 -15.97253418 99.54315186 C-15.97005266 101.18499924 -15.96666636 102.82684556 -15.96228027 104.46868896 C-15.92535231 118.66966137 -16.28274962 132.81522924 -17 147 C-17.66 147 -18.32 147 -19 147 C-19.14635603 141.84873493 -19.28850169 136.69737415 -19.42724609 131.54589844 C-19.47467659 129.80465797 -19.52312963 128.06344496 -19.57275391 126.32226562 C-19.95505956 112.87134822 -20 99.46414604 -20 86 C-35.51 86 -51.02 86 -67 86 C-67.53495258 65.13684919 -67.53495258 65.13684919 -67.734375 54.90234375 C-67.85859344 48.67404306 -68.05613619 42.47085275 -68.453125 36.25390625 C-69.32288587 20.32190534 -69.32288587 20.32190534 -64.25878906 14.56811523 C-60.89121675 11.34712495 -57.22797097 8.92690712 -53 7 C-52.34 6.67 -51.68 6.34 -51 6 C-51 15 -51 15 -52.4609375 16.88671875 C-53.09257813 17.48097656 -53.72421875 18.07523438 -54.375 18.6875 C-55.00148438 19.28949219 -55.62796875 19.89148438 -56.2734375 20.51171875 C-58 22 -58 22 -60 23 C-60.33 41.81 -60.66 60.62 -61 80 C-47.8 80 -34.6 80 -21 80 C-21.24363281 75.98457031 -21.48726562 71.96914062 -21.73828125 67.83203125 C-21.99071091 62.49362246 -22.17281766 57.15487026 -22.3125 51.8125 C-22.33047638 51.12971859 -22.34845276 50.44693718 -22.36697388 49.74346542 C-23.05643 20.17307519 -23.05643 20.17307519 -14.93000793 10.79777527 C-10.56430971 6.38298218 -5.50792306 2.83278566 0 0 Z " fill="#181818" transform="translate(74,166)"/>
<path d="M0 0 C3.94892497 0.37446702 5.50604963 2.32149768 8 5.25 C11.54654867 9.33056255 15.1347149 13.35089102 18.8125 17.3125 C19.83995827 18.42307114 20.86730085 19.53374933 21.89453125 20.64453125 C22.40838379 21.19963379 22.92223633 21.75473633 23.45166016 22.32666016 C25.47151841 24.50958486 27.4887172 26.69495567 29.50561523 28.88061523 C30.50623906 29.96493771 31.50705455 31.04908335 32.50805664 32.13305664 C34.96107592 34.78946797 37.4123092 37.44747764 39.859375 40.109375 C40.82282908 41.15633061 41.78637144 42.20320498 42.75 43.25 C43.22888672 43.77086182 43.70777344 44.29172363 44.20117188 44.82836914 C47.16399833 48.04114795 50.15670148 51.22297742 53.171875 54.38671875 C53.88891602 55.14114258 54.60595703 55.89556641 55.34472656 56.67285156 C56.74910866 58.14850271 58.15714111 59.62069106 59.56933594 61.08886719 C60.21676758 61.76981445 60.86419922 62.45076172 61.53125 63.15234375 C62.10423828 63.75038818 62.67722656 64.34843262 63.26757812 64.96459961 C65.40013206 67.47011006 67.17492939 70.26239408 69 73 C58.77 73 48.54 73 38 73 C38 91.81 38 110.62 38 130 C28.1 130 18.2 130 8 130 C8 129.34 8 128.68 8 128 C16.58 128 25.16 128 34 128 C34 108.2 34 88.4 34 68 C41.26 68 48.52 68 56 68 C54.35 66.35 52.7 64.7 51 63 C49.66666667 61.33333333 48.33333333 59.66666667 47 58 C45.34531835 56.31962803 43.67841583 54.65637253 42 53 C40.82705158 51.83318812 39.65455934 50.66591755 38.48242188 49.49829102 C37.83825317 48.85735001 37.19408447 48.216409 36.53039551 47.55604553 C33.61787805 44.65695766 30.70804916 41.75517746 27.79833984 38.85327148 C26.2670082 37.32698246 24.73478215 35.80159026 23.20166016 34.27709961 C20.97580118 32.06341815 18.75323016 29.84648021 16.53125 27.62890625 C15.85090698 26.95372452 15.17056396 26.27854279 14.46960449 25.582901 C11.56671705 22.68035394 8.78484235 19.79883337 6.23632812 16.57788086 C4.17573892 13.71392896 4.17573892 13.71392896 0.6875 13.125 C-0.199375 13.08375 -1.08625 13.0425 -2 13 C-2 11.02 -2 9.04 -2 7 C-3.32 6.67 -4.64 6.34 -6 6 C-4 4 -2 2 0 0 Z " fill="#0F0F0F" transform="translate(424,121)"/>
<path d="M0 0 C3.18697468 2.81203648 4.75373278 5.60664784 5.4453125 9.83203125 C5.73923845 14.95614033 4.48145071 17.86590609 1.125 21.875 C-2.79693654 25.41492974 -6.02352229 25.57153342 -11.16796875 25.40625 C-15.00051827 24.65411907 -16.69773495 23.23216523 -18.9140625 20.07421875 C-21.22258802 14.79088594 -20.52351548 9.75228166 -18.6875 4.4375 C-14.09350052 -2.05746478 -7.14156077 -2.79452378 0 0 Z " fill="#101010" transform="translate(174.875,268.125)"/>
<path d="M0 0 C3.51979236 3.20922245 4.9817822 6.51543431 5.2578125 11.18359375 C4.92653981 16.96137922 3.29493625 19.96613214 -0.875 23.9375 C-5.20710122 25.38153374 -9.3476674 25.47275114 -13.875 24.9375 C-17.3301728 22.60525836 -18.787391 19.92539968 -19.875 15.9375 C-20.3195143 10.33661985 -20.11218467 6.73746348 -16.875 1.9375 C-12.05776017 -2.31300573 -5.79104702 -2.14016955 0 0 Z " fill="#0C0C0C" transform="translate(417.875,268.0625)"/>
<path d="M0 0 C3.63751311 -0.95684061 6.39900877 -1.18538854 10 0 C13.89929861 3.94840817 16.43109364 9.13521115 19 14 C19 10.7 19 7.4 19 4 C18.34 3.67 17.68 3.34 17 3 C17 2.01 17 1.02 17 0 C20.63 0 24.26 0 28 0 C28 1.32 28 2.64 28 4 C27.01 4 26.02 4 25 4 C25 11.26 25 18.52 25 26 C23.02 26.33 21.04 26.66 19 27 C16.03 22.38 13.06 17.76 10 13 C9.67 16.3 9.34 19.6 9 23 C9.99 23 10.98 23 12 23 C12 23.99 12 24.98 12 26 C8.37 26 4.74 26 1 26 C1.33 24.68 1.66 23.36 2 22 C2.14033578 20.560265 2.24416857 19.11662851 2.31640625 17.671875 C2.35830078 16.87265625 2.40019531 16.0734375 2.44335938 15.25 C2.50233398 14.0125 2.50233398 14.0125 2.5625 12.75 C2.60568359 11.90953125 2.64886719 11.0690625 2.69335938 10.203125 C2.79908543 8.13559329 2.90001295 6.06781719 3 4 C2.01 3.67 1.02 3.34 0 3 C0 2.01 0 1.02 0 0 Z " fill="#0D0D0D" transform="translate(428,267)"/>
<path d="M0 0 C3.63751311 -0.95684061 6.39900877 -1.18538854 10 0 C13.89929861 3.94840817 16.43109364 9.13521115 19 14 C19 10.7 19 7.4 19 4 C18.34 3.67 17.68 3.34 17 3 C17 2.01 17 1.02 17 0 C20.63 0 24.26 0 28 0 C27.67 1.32 27.34 2.64 27 4 C26.34 4 25.68 4 25 4 C25 11.26 25 18.52 25 26 C23.02 26.33 21.04 26.66 19 27 C15.7 22.05 12.4 17.1 9 12 C9 15.3 9 18.6 9 22 C9.99 22.33 10.98 22.66 12 23 C12 23.99 12 24.98 12 26 C8.37 26 4.74 26 1 26 C1.33 24.68 1.66 23.36 2 22 C2.14033578 20.560265 2.24416857 19.11662851 2.31640625 17.671875 C2.35830078 16.87265625 2.40019531 16.0734375 2.44335938 15.25 C2.50233398 14.0125 2.50233398 14.0125 2.5625 12.75 C2.60568359 11.90953125 2.64886719 11.0690625 2.69335938 10.203125 C2.79908543 8.13559329 2.90001295 6.06781719 3 4 C2.01 3.67 1.02 3.34 0 3 C0 2.01 0 1.02 0 0 Z " fill="#090909" transform="translate(185,267)"/>
<path d="M0 0 C2.73083902 -0.13548815 5.45491807 -0.23429855 8.1875 -0.3125 C8.95642578 -0.35439453 9.72535156 -0.39628906 10.51757812 -0.43945312 C14.83560853 -0.53211472 16.49579047 -0.38363768 20.0546875 2.32421875 C22 5 22 5 21.9375 8.125 C21 11 21 11 19 14 C18.34 14 17.68 14 17 14 C17.78551657 15.31618998 18.5786237 16.62785228 19.375 17.9375 C19.81585938 18.66839844 20.25671875 19.39929688 20.7109375 20.15234375 C21.8773984 22.13772272 21.8773984 22.13772272 24 23 C24 23.99 24 24.98 24 26 C21.20703942 26.18314496 18.75363638 26.34352295 16 26 C13.71746504 23.94571854 13.06231614 22.15762319 11.9375 19.3125 C11.23196154 16.84061395 11.23196154 16.84061395 9 16 C9 18.31 9 20.62 9 23 C9.66 23 10.32 23 11 23 C11 23.99 11 24.98 11 26 C7.04 26 3.08 26 -1 26 C-1 25.01 -1 24.02 -1 23 C-0.34 22.67 0.32 22.34 1 22 C1.33 15.73 1.66 9.46 2 3 C1.34 3 0.68 3 0 3 C0 2.01 0 1.02 0 0 Z " fill="#0E0E0E" transform="translate(269,267)"/>
<path d="M0 0 C3.63 0 7.26 0 11 0 C10.67 1.32 10.34 2.64 10 4 C9.92291277 5.36800819 9.89196391 6.73923592 9.90234375 8.109375 C9.90556641 8.86347656 9.90878906 9.61757813 9.91210938 10.39453125 C9.92048828 11.17183594 9.92886719 11.94914062 9.9375 12.75 C9.94201172 13.54277344 9.94652344 14.33554687 9.95117188 15.15234375 C9.96291435 17.10159508 9.98084854 19.05080738 10 21 C11.66611905 21.042721 13.33382885 21.04063832 15 21 C16.41774838 19.81147145 16.41774838 19.81147145 16.09765625 16.40234375 C16.0909822 14.91403133 16.07902183 13.42573568 16.0625 11.9375 C16.05798828 11.17888672 16.05347656 10.42027344 16.04882812 9.63867188 C16.0370068 7.75908129 16.01907078 5.87953101 16 4 C15.34 3.67 14.68 3.34 14 3 C14 2.01 14 1.02 14 0 C17.3 0 20.6 0 24 0 C24 0.99 24 1.98 24 3 C23.34 3 22.68 3 22 3 C22.05800781 4.24136719 22.11601562 5.48273438 22.17578125 6.76171875 C22.22269238 8.40360814 22.26819109 10.04553832 22.3125 11.6875 C22.35439453 12.50412109 22.39628906 13.32074219 22.43945312 14.16210938 C22.52694596 18.48425566 22.40468477 20.43052467 19.83203125 24.05078125 C16.66729737 26.22899119 15.17035692 26.62546634 11.375 26.5 C10.43398438 26.4896875 9.49296875 26.479375 8.5234375 26.46875 C5.64575295 25.93419559 4.75967203 25.28645283 3 23 C1.8517315 20.703463 1.88438825 19.41686833 1.90234375 16.8671875 C1.90556641 16.06152344 1.90878906 15.25585938 1.91210938 14.42578125 C1.92048828 13.58402344 1.92886719 12.74226563 1.9375 11.875 C1.94201172 11.02550781 1.94652344 10.17601562 1.95117188 9.30078125 C1.96297126 7.20049091 1.98090694 5.1002367 2 3 C1.34 3 0.68 3 0 3 C0 2.01 0 1.02 0 0 Z " fill="#0A0A0A" transform="translate(298,267)"/>
<path d="M0 0 C6.27 0 12.54 0 19 0 C18.01 1.32 17.02 2.64 16 4 C12.04 4 8.08 4 4 4 C4 22.81 4 41.62 4 61 C-5.9 61 -15.8 61 -26 61 C-26 60.34 -26 59.68 -26 59 C-17.42 59 -8.84 59 0 59 C0 39.53 0 20.06 0 0 Z " fill="#070707" transform="translate(458,190)"/>
<path d="M0 0 C0.66 0.33 1.32 0.66 2 1 C2 3.31 2 5.62 2 8 C0.35 8.33 -1.3 8.66 -3 9 C-3 7.68 -3 6.36 -3 5 C-4.98 5 -6.96 5 -9 5 C-9 6.32 -9 7.64 -9 9 C-8.113125 9.2475 -7.22625 9.495 -6.3125 9.75 C-2.74311627 11.09693726 -0.58528333 12.18660343 2 15 C2.50193575 18.57629221 2.80542516 20.84939263 0.6875 23.875 C-2.49213582 25.99475721 -5.29394726 26.13602992 -9 26.125 C-10.299375 26.12886719 -10.299375 26.12886719 -11.625 26.1328125 C-14 26 -14 26 -17 25 C-16.67 22.36 -16.34 19.72 -16 17 C-14.68 17 -13.36 17 -12 17 C-11.773125 17.639375 -11.54625 18.27875 -11.3125 18.9375 C-10.14749104 21.27193661 -10.14749104 21.27193661 -7.375 21.75 C-6.59125 21.8325 -5.8075 21.915 -5 22 C-5.3661261 19.38719104 -5.63497224 18.2889121 -7.7421875 16.62109375 C-8.44601563 16.23050781 -9.14984375 15.83992188 -9.875 15.4375 C-12.63792005 13.88272027 -14.98512582 12.48374427 -17 10 C-17 6.31364446 -16.41254967 4.52256291 -14.125 1.625 C-9.52541346 -0.766785 -5.09325052 -0.50030319 0 0 Z " fill="#101010" transform="translate(234,267)"/>
<path d="M0 0 C1.74216797 0.05414063 1.74216797 0.05414063 3.51953125 0.109375 C4.39996094 0.15578125 5.28039062 0.2021875 6.1875 0.25 C5.8575 3.22 5.5275 6.19 5.1875 9.25 C3.8675 9.25 2.5475 9.25 1.1875 9.25 C0.8575 7.93 0.5275 6.61 0.1875 5.25 C-1.1325 5.25 -2.4525 5.25 -3.8125 5.25 C-4.1425 6.57 -4.4725 7.89 -4.8125 9.25 C-3.925625 9.4975 -3.03875 9.745 -2.125 10 C1.44438373 11.34693726 3.60221667 12.43660343 6.1875 15.25 C6.8125 18.75 6.8125 18.75 6.1875 22.25 C4.4375 24.6875 4.4375 24.6875 1.1875 26.25 C-8.92697811 27.19276094 -8.92697811 27.19276094 -12.8125 25.25 C-12.4825 22.61 -12.1525 19.97 -11.8125 17.25 C-10.4925 17.25 -9.1725 17.25 -7.8125 17.25 C-7.4825 18.57 -7.1525 19.89 -6.8125 21.25 C-5.1625 21.25 -3.5125 21.25 -1.8125 21.25 C-1.8125 20.26 -1.8125 19.27 -1.8125 18.25 C-2.76962891 17.74339844 -2.76962891 17.74339844 -3.74609375 17.2265625 C-4.57238281 16.78054688 -5.39867188 16.33453125 -6.25 15.875 C-7.48556641 15.21371094 -7.48556641 15.21371094 -8.74609375 14.5390625 C-10.8125 13.25 -10.8125 13.25 -11.8125 11.25 C-12.1875 7.875 -12.1875 7.875 -11.8125 4.25 C-8.04625159 0.28036015 -5.36542 -0.21678465 0 0 Z " fill="#0C0C0C" transform="translate(80.8125,266.75)"/>
<path d="M0 0 C1 1 1 1 1.0625 4.5625 C1.041875 5.696875 1.02125 6.83125 1 8 C-0.65 8.33 -2.3 8.66 -4 9 C-4.33 7.68 -4.66 6.36 -5 5 C-6.65 5 -8.3 5 -10 5 C-10 6.32 -10 7.64 -10 9 C-9.113125 9.2475 -8.22625 9.495 -7.3125 9.75 C-3.74311627 11.09693726 -1.58528333 12.18660343 1 15 C1.625 18.5 1.625 18.5 1 22 C-0.8125 24.4375 -0.8125 24.4375 -4 26 C-8.8346235 26.49404912 -13.37017306 26.54327565 -18 25 C-17.67 22.36 -17.34 19.72 -17 17 C-15.68 17 -14.36 17 -13 17 C-12.67 18.32 -12.34 19.64 -12 21 C-10.35 21 -8.7 21 -7 21 C-7 20.01 -7 19.02 -7 18 C-8.70150385 16.59964954 -8.70150385 16.59964954 -10.875 15.4375 C-13.27165749 14.05877768 -15.03227554 12.96772446 -17 11 C-17.51651858 7.01542812 -17.62759666 4.8741525 -15.25 1.5625 C-10.32021643 -0.80758826 -5.38514392 -0.50382481 0 0 Z " fill="#0E0E0E" transform="translate(111,267)"/>
<path d="M0 0 C1.76923828 0.01353516 1.76923828 0.01353516 3.57421875 0.02734375 C4.47785156 0.03894531 5.38148438 0.05054688 6.3125 0.0625 C6.33939216 1.54156892 6.35884621 3.02077483 6.375 4.5 C6.38660156 5.32371094 6.39820313 6.14742188 6.41015625 6.99609375 C6.3125 9.0625 6.3125 9.0625 5.3125 10.0625 C3.64632885 10.10313832 1.97861905 10.105221 0.3125 10.0625 C0.3125 8.4125 0.3125 6.7625 0.3125 5.0625 C-1.9975 5.3925 -4.3075 5.7225 -6.6875 6.0625 C-7.81324668 12.70093479 -7.81324668 12.70093479 -6.5625 19.1875 C-4.80762508 21.33031426 -4.80762508 21.33031426 -2 21.375 C-1.236875 21.271875 -0.47375 21.16875 0.3125 21.0625 C0.6425 19.7425 0.9725 18.4225 1.3125 17.0625 C2.6325 17.0625 3.9525 17.0625 5.3125 17.0625 C5.3125 19.7025 5.3125 22.3425 5.3125 25.0625 C0.6759305 26.60802317 -3.85050501 26.69041233 -8.6875 26.0625 C-12.36185174 24.2217706 -14.37083826 22.01248521 -15.6875 18.0625 C-16.21617716 12.63339223 -16.20402211 8.49071303 -12.6875 4.0625 C-9.02660495 -0.20854423 -5.40272135 -0.05349229 0 0 Z " fill="#0B0B0B" transform="translate(342.6875,266.9375)"/>
<path d="M0 0 C1.76923828 0.01353516 1.76923828 0.01353516 3.57421875 0.02734375 C4.47785156 0.03894531 5.38148438 0.05054688 6.3125 0.0625 C6.3125 3.0325 6.3125 6.0025 6.3125 9.0625 C4.3325 9.0625 2.3525 9.0625 0.3125 9.0625 C-0.0175 7.7425 -0.3475 6.4225 -0.6875 5.0625 C-2.35361905 5.019779 -4.02132885 5.02186168 -5.6875 5.0625 C-7.48654778 6.86154778 -6.86046543 9.51313451 -6.875 11.9375 C-6.89626953 13.54238281 -6.89626953 13.54238281 -6.91796875 15.1796875 C-6.9069778 18.26046434 -6.9069778 18.26046434 -4.6875 21.0625 C-3.0375 20.7325 -1.3875 20.4025 0.3125 20.0625 C0.6425 19.0725 0.9725 18.0825 1.3125 17.0625 C2.6325 17.0625 3.9525 17.0625 5.3125 17.0625 C5.3125 19.7025 5.3125 22.3425 5.3125 25.0625 C0.6759305 26.60802317 -3.85050501 26.69041233 -8.6875 26.0625 C-12.36185174 24.2217706 -14.37083826 22.01248521 -15.6875 18.0625 C-16.21617716 12.63339223 -16.20402211 8.49071303 -12.6875 4.0625 C-9.02660495 -0.20854423 -5.40272135 -0.05349229 0 0 Z " fill="#0F0F0F" transform="translate(142.6875,266.9375)"/>
<path d="M0 0 C7.59 0 15.18 0 23 0 C23 2.97 23 5.94 23 9 C21.68 9 20.36 9 19 9 C18.71125 8.360625 18.4225 7.72125 18.125 7.0625 C17.17176549 4.84793921 17.17176549 4.84793921 15 4 C15 10.27 15 16.54 15 23 C16.32 23 17.64 23 19 23 C19 23.99 19 24.98 19 26 C14.05 26 9.1 26 4 26 C4 25.01 4 24.02 4 23 C4.99 22.67 5.98 22.34 7 22 C7.495 13.09 7.495 13.09 8 4 C4.87525373 5.63473516 4.87525373 5.63473516 4.3125 8.125 C4.209375 8.74375 4.10625 9.3625 4 10 C2.68 10 1.36 10 0 10 C0 6.7 0 3.4 0 0 Z " fill="#0E0E0E" transform="translate(353,267)"/>
<path d="M0 0 C7.59 0 15.18 0 23 0 C23 2.97 23 5.94 23 9 C21.68 9 20.36 9 19 9 C18.71125 8.360625 18.4225 7.72125 18.125 7.0625 C17.17176549 4.84793921 17.17176549 4.84793921 15 4 C15 10.27 15 16.54 15 23 C16.32 23 17.64 23 19 23 C19 23.99 19 24.98 19 26 C14.05 26 9.1 26 4 26 C4 25.01 4 24.02 4 23 C4.99 22.67 5.98 22.34 7 22 C7.495 13.09 7.495 13.09 8 4 C4.75150023 5.72226496 4.75150023 5.72226496 4 9 C2.68 9 1.36 9 0 9 C0 6.03 0 3.06 0 0 Z " fill="#111111" transform="translate(241,267)"/>
<path d="M0 0 C4.29 0 8.58 0 13 0 C13 0.99 13 1.98 13 3 C12.01 3 11.02 3 10 3 C10 9.6 10 16.2 10 23 C10.99 23 11.98 23 13 23 C13 23.99 13 24.98 13 26 C8.71 26 4.42 26 0 26 C0 25.01 0 24.02 0 23 C0.66 22.67 1.32 22.34 2 22 C2.33 15.73 2.66 9.46 3 3 C2.01 3 1.02 3 0 3 C0 2.01 0 1.02 0 0 Z " fill="#141414" transform="translate(380,267)"/>
<path d="M0 0 C-0.33 0.99 -0.66 1.98 -1 3 C-2.66580177 8.87790053 -2.7949799 14.4100402 0 20 C1.65 20 3.3 20 5 20 C5.33 19.34 5.66 18.68 6 18 C7.98 18.33 9.96 18.66 12 19 C11.05078189 21.37304528 10.42916817 22.73034566 8.234375 24.109375 C4.24860426 25.69810879 0.21198485 25.56861795 -4 25 C-7.4551728 22.66775836 -8.912391 19.98789968 -10 16 C-10.44839408 10.35023464 -10.14966784 6.89948331 -7 2 C-4 0 -4 0 0 0 Z " fill="#0A0A0A" transform="translate(408,268)"/>
<path d="M0 0 C3.63 0 7.26 0 11 0 C11 1.32 11 2.64 11 4 C10.01 4 9.02 4 8 4 C8 11.26 8 18.52 8 26 C6.02 26.33 4.04 26.66 2 27 C1.16121545 25.71186658 0.32913217 24.41936744 -0.5 23.125 C-0.9640625 22.40570313 -1.428125 21.68640625 -1.90625 20.9453125 C-3 19 -3 19 -3 17 C-1.35 16.34 0.3 15.68 2 15 C2 11.37 2 7.74 2 4 C1.34 3.67 0.68 3.34 0 3 C0 2.01 0 1.02 0 0 Z " fill="#0B0B0B" transform="translate(445,267)"/>
<path d="M0 0 C3.875 1.875 3.875 1.875 5 3 C5.45156126 6.98879116 5.62562234 9.15864582 3.1875 12.4375 C-2.19618783 15.07656266 -8.34565986 14.88478005 -14 13 C-13.67 10.36 -13.34 7.72 -13 5 C-11.68 5 -10.36 5 -9 5 C-8.67 6.32 -8.34 7.64 -8 9 C-6.35 9 -4.7 9 -3 9 C-3.2475 8.2575 -3.495 7.515 -3.75 6.75 C-3.87375 5.38875 -3.87375 5.38875 -4 4 C-2.0625 1.6875 -2.0625 1.6875 0 0 Z " fill="#0B0B0B" transform="translate(107,279)"/>
<path d="M0 0 C3 -0.375 3 -0.375 6 0 C8.23465229 3.35197843 8.27108649 4.57791246 8.25 8.5 C8.25515625 9.4590625 8.2603125 10.418125 8.265625 11.40625 C8 14 8 14 6 17 C3.375 17.1875 3.375 17.1875 1 17 C-2.00943022 11.98428297 -2.46706347 8.69817438 -2 3 C-1.34 2.01 -0.68 1.02 0 0 Z " fill="#EFEFEF" transform="translate(407,272)"/>
<path d="M0 0 C1.74216797 0.05414063 1.74216797 0.05414063 3.51953125 0.109375 C4.39996094 0.15578125 5.28039062 0.2021875 6.1875 0.25 C5.8575 3.22 5.5275 6.19 5.1875 9.25 C3.8675 9.25 2.5475 9.25 1.1875 9.25 C0.8575 7.93 0.5275 6.61 0.1875 5.25 C-1.1325 5.25 -2.4525 5.25 -3.8125 5.25 C-4.1425 6.57 -4.4725 7.89 -4.8125 9.25 C-4.1525 9.58 -3.4925 9.91 -2.8125 10.25 C-5.13106917 11.79571278 -7.31888429 13.04618552 -9.8125 14.25 C-12.30086965 10.51744552 -12.35476552 8.66559065 -11.8125 4.25 C-8.03838383 0.28647651 -5.36911972 -0.21693413 0 0 Z " fill="#141414" transform="translate(80.8125,266.75)"/>
<path d="M0 0 C2.5 0.1875 2.5 0.1875 5 1 C7.23465229 4.35197843 7.27108649 5.57791246 7.25 9.5 C7.25515625 10.4590625 7.2603125 11.418125 7.265625 12.40625 C7 15 7 15 5 18 C2.5 18.375 2.5 18.375 0 18 C-2.38854824 14.41717765 -2.26898802 12.68606967 -2.25 8.4375 C-2.25515625 7.28121094 -2.2603125 6.12492187 -2.265625 4.93359375 C-2 2 -2 2 0 0 Z " fill="#F1F1F1" transform="translate(165,271)"/>
<path d="M0 0 C3 0.125 3 0.125 4 1.125 C4.12658222 3.78322657 4.18520214 6.40387424 4.1875 9.0625 C4.19974609 9.80435547 4.21199219 10.54621094 4.22460938 11.31054688 C4.22988478 13.25013629 4.12188902 15.1892371 4 17.125 C2 19.125 2 19.125 -0.5625 19.3125 C-3 19.125 -3 19.125 -4 18.125 C-4.09986975 15.28164952 -4.13877881 12.46802837 -4.125 9.625 C-4.12886719 8.82707031 -4.13273437 8.02914063 -4.13671875 7.20703125 C-4.1247745 0.1718656 -4.1247745 0.1718656 0 0 Z " fill="#FAFAFA" transform="translate(311,269.875)"/>
<path d="M0 0 C2.7265625 -0.27734375 2.7265625 -0.27734375 6 0 C8.3359375 1.93359375 8.3359375 1.93359375 10.375 4.4375 C11.06335938 5.26121094 11.75171875 6.08492187 12.4609375 6.93359375 C14 9 14 9 14 10 C7.73 10 1.46 10 -5 10 C-4.34 9.01 -3.68 8.02 -3 7 C-8.94 6.67 -14.88 6.34 -21 6 C-21 5.67 -21 5.34 -21 5 C-13.74 5 -6.48 5 1 5 C0.67 3.35 0.34 1.7 0 0 Z " fill="#0B0B0B" transform="translate(479,184)"/>
<path d="M0 0 C0.33 0 0.66 0 1 0 C1 13.53 1 27.06 1 41 C-8.9 41 -18.8 41 -29 41 C-29 40.34 -29 39.68 -29 39 C-20.42 39 -11.84 39 -3 39 C-3 31.41 -3 23.82 -3 16 C-2.67 16 -2.34 16 -2 16 C-2 22.27 -2 28.54 -2 35 C-1.34 35 -0.68 35 0 35 C0 23.45 0 11.9 0 0 Z " fill="#5B5B5B" transform="translate(461,210)"/>
<path d="M0 0 C0 3 0 3 -1.35546875 4.6484375 C-2.26232422 5.50308594 -2.26232422 5.50308594 -3.1875 6.375 C-4.15042969 7.29925781 -4.15042969 7.29925781 -5.1328125 8.2421875 C-5.74898437 8.82226562 -6.36515625 9.40234375 -7 10 C-9.78129397 12.71345753 -12.39718886 15.44974356 -14.875 18.4375 C-17.45904562 21.49982656 -20.25845902 24.04212897 -23.3359375 26.59765625 C-26.53989878 29.29770813 -29.37254047 32.19037479 -31.9375 35.5 C-34.34914516 38.42320625 -37.0672892 40.60595036 -40 43 C-41.68711423 44.6459651 -43.3545622 46.31237149 -45 48 C-46.66666667 49.66666667 -48.33333333 51.33333333 -50 53 C-50.66 52.34 -51.32 51.68 -52 51 C-51.09406601 50.20064781 -51.09406601 50.20064781 -50.16983032 49.38514709 C-43.85161415 43.76137707 -37.79827609 37.93142286 -31.8359375 31.93359375 C-30.45881088 30.55434471 -30.45881088 30.55434471 -29.05386353 29.14723206 C-26.64824963 26.73785433 -24.24565737 24.32548657 -21.84375 21.91241455 C-19.37817237 19.43648855 -16.90965474 16.9634973 -14.44140625 14.49023438 C-9.62477411 9.66297356 -4.8113378 4.83253757 0 0 Z " fill="#E2E2E2" transform="translate(161,44)"/>
<path d="M0 0 C3.3 0 6.6 0 10 0 C10 0.99 10 1.98 10 3 C9.34 3 8.68 3 8 3 C8.01160156 3.556875 8.02320313 4.11375 8.03515625 4.6875 C8.09676433 9.89778343 7.74999344 14.8437951 7 20 C5.35 20.66 3.7 21.32 2 22 C2 16.06 2 10.12 2 4 C1.34 3.67 0.68 3.34 0 3 C0 2.01 0 1.02 0 0 Z " fill="#040404" transform="translate(312,267)"/>
<path d="M0 0 C0.33 0 0.66 0 1 0 C1.33 2.64 1.66 5.28 2 8 C2.99 7.34 3.98 6.68 5 6 C6 7 6 7 6.09765625 9.72265625 C6.08605469 10.82480469 6.07445312 11.92695313 6.0625 13.0625 C6.05347656 14.16722656 6.04445313 15.27195312 6.03515625 16.41015625 C6.02355469 17.26480469 6.01195312 18.11945313 6 19 C6.99 19 7.98 19 9 19 C9 19.99 9 20.98 9 22 C5.37 22 1.74 22 -2 22 C-1.67 20.68 -1.34 19.36 -1 18 C-0.85966422 16.560265 -0.75583143 15.11662851 -0.68359375 13.671875 C-0.64169922 12.87265625 -0.59980469 12.0734375 -0.55664062 11.25 C-0.49766602 10.0125 -0.49766602 10.0125 -0.4375 8.75 C-0.39431641 7.90953125 -0.35113281 7.0690625 -0.30664062 6.203125 C-0.20091457 4.13559329 -0.09998705 2.06781719 0 0 Z " fill="#1E1E1E" transform="translate(431,271)"/>
<path d="M0 0 C1.76923828 0.01353516 1.76923828 0.01353516 3.57421875 0.02734375 C4.47785156 0.03894531 5.38148438 0.05054688 6.3125 0.0625 C6.33939216 1.54156892 6.35884621 3.02077483 6.375 4.5 C6.38660156 5.32371094 6.39820313 6.14742188 6.41015625 6.99609375 C6.3125 9.0625 6.3125 9.0625 5.3125 10.0625 C3.64632885 10.10313832 1.97861905 10.105221 0.3125 10.0625 C0.3125 8.4125 0.3125 6.7625 0.3125 5.0625 C-4.1425 5.5575 -4.1425 5.5575 -8.6875 6.0625 C-8.3575 5.0725 -8.0275 4.0825 -7.6875 3.0625 C-8.3475 3.0625 -9.0075 3.0625 -9.6875 3.0625 C-10.0175 3.7225 -10.3475 4.3825 -10.6875 5.0625 C-10.375 3.125 -10.375 3.125 -9.6875 1.0625 C-6.26517028 -0.07827657 -3.60076783 -0.03565117 0 0 Z " fill="#2F2F2F" transform="translate(342.6875,266.9375)"/>
<path d="M0 0 C0.66 0 1.32 0 2 0 C2.25394531 0.55429687 2.50789063 1.10859375 2.76953125 1.6796875 C3.11371094 2.40414063 3.45789063 3.12859375 3.8125 3.875 C4.31716797 4.95394531 4.31716797 4.95394531 4.83203125 6.0546875 C5.99467097 8.30542806 5.99467097 8.30542806 9 10 C9 10.99 9 11.98 9 13 C1.56271981 13.4876905 1.56271981 13.4876905 -0.875 11.375 C-2.17101535 8.63896759 -3.14253031 5.90220509 -4 3 C-2.68 3 -1.36 3 0 3 C0 2.01 0 1.02 0 0 Z " fill="#0D0D0D" transform="translate(284,280)"/>
<path d="M0 0 C3.26008643 3.16952847 6.22237877 6.39937989 9 10 C8.01 10.33 7.02 10.66 6 11 C5.34 10.67 4.68 10.34 4 10 C4 10.66 4 11.32 4 12 C0.21282653 10.51218185 -1.77407001 8.38011591 -4 5 C-3 2 -3 2 0 0 Z " fill="#181818" transform="translate(475,174)"/>
<path d="M0 0 C6.27 0 12.54 0 19 0 C19 0.33 19 0.66 19 1 C18.40832031 1.02578125 17.81664062 1.0515625 17.20703125 1.078125 C11.999945 1.45187997 8.68759993 1.96668757 5 6 C4.13034494 8.12946603 4.13034494 8.12946603 4 10 C2.68 10 1.36 10 0 10 C0 6.7 0 3.4 0 0 Z " fill="#212121" transform="translate(353,267)"/>
<path d="M0 0 C0 3 0 3 -1.66479492 4.98950195 C-2.42896729 5.73159912 -3.19313965 6.47369629 -3.98046875 7.23828125 C-4.81513672 8.05876953 -5.64980469 8.87925781 -6.50976562 9.72460938 C-7.83524414 11.00561523 -7.83524414 11.00561523 -9.1875 12.3125 C-16.93728407 19.84167993 -16.93728407 19.84167993 -24 28 C-25.625 29.875 -25.625 29.875 -27 31 C-27.99 31 -28.98 31 -30 31 C-28.90445179 27.71335536 -28.22061852 27.11728353 -25.625 24.99609375 C-20.11503488 20.32123272 -15.08274681 15.19142192 -10 10.0625 C-9.02497614 9.0824469 -8.0497172 8.1026276 -7.07421875 7.12304688 C-4.71383382 4.75097687 -2.35583095 2.3765914 0 0 Z " fill="#DCDCDC" transform="translate(137,114)"/>
<path d="M0 0 C9.61181435 -0.56540084 9.61181435 -0.56540084 14 3 C14.33 3.66 14.66 4.32 15 5 C14.030625 5.12375 13.06125 5.2475 12.0625 5.375 C10.5465625 5.684375 10.5465625 5.684375 9 6 C8.67 6.66 8.34 7.32 8 8 C7.67 7.34 7.34 6.68 7 6 C3.97065509 5.34227572 3.97065509 5.34227572 1 5 C1.33 3.68 1.66 2.36 2 1 C1.34 0.67 0.68 0.34 0 0 Z " fill="#141414" transform="translate(406,267)"/>
<path d="M0 0 C0.33 0 0.66 0 1 0 C1 6.27 1 12.54 1 19 C1.66 19 2.32 19 3 19 C3 20.65 3 22.3 3 24 C-6.24 24 -15.48 24 -25 24 C-25 23.67 -25 23.34 -25 23 C-16.75 23 -8.5 23 0 23 C0 15.41 0 7.82 0 0 Z " fill="#373737" transform="translate(458,226)"/>
<path d="M0 0 C1.98 0 3.96 0 6 0 C6 1.32 6 2.64 6 4 C7.32 4 8.64 4 10 4 C10 4.66 10 5.32 10 6 C10.66 6 11.32 6 12 6 C12.33 5.34 12.66 4.68 13 4 C13 7 13 7 12 10 C8 8 4 6 0 4 C0 2.68 0 1.36 0 0 Z " fill="#F2F2F2" transform="translate(225,272)"/>
<path d="M0 0 C2.31 0 4.62 0 7 0 C7 2.97 7 5.94 7 9 C5.02 9 3.04 9 1 9 C0.67 6.03 0.34 3.06 0 0 Z " fill="#1C1C1C" transform="translate(142,267)"/>
<path d="M0 0 C0.33 0.99 0.66 1.98 1 3 C1.99 3.33 2.98 3.66 4 4 C4 7.63 4 11.26 4 15 C0.67538178 12.01930781 -1.52570029 9.2494521 -3 5 C-1.6875 2.125 -1.6875 2.125 0 0 Z " fill="#DEDEDE" transform="translate(201,267)"/>
<path d="M0 0 C0.33 0 0.66 0 1 0 C1.05382106 2.62527189 1.09358313 5.24944713 1.125 7.875 C1.14175781 8.62136719 1.15851563 9.36773437 1.17578125 10.13671875 C1.1933959 12.09194461 1.10320189 14.04742021 1 16 C-1 18 -1 18 -3.5625 18.1875 C-6 18 -6 18 -7 17 C-7.04063832 15.33382885 -7.042721 13.66611905 -7 12 C-4.03 12.495 -4.03 12.495 -1 13 C-0.67 8.71 -0.34 4.42 0 0 Z " fill="#D2D2D2" transform="translate(314,271)"/>
<path d="M0 0 C3.39417765 3.12621626 5.6062718 5.56541027 7 10 C6.01 10.66 5.02 11.32 4 12 C2.68 11.67 1.36 11.34 0 11 C0 7.37 0 3.74 0 0 Z " fill="#D9D9D9" transform="translate(193,278)"/>
<path d="M0 0 C0.66 0.66 1.32 1.32 2 2 C0.73205551 5.80383347 -0.64453288 6.00269814 -4 8 C-5.0260734 9.31337396 -6.02727325 10.64664105 -7 12 C-9 13.8125 -9 13.8125 -11 15 C-11.99 14.67 -12.98 14.34 -14 14 C-13.38125 13.7525 -12.7625 13.505 -12.125 13.25 C-9.88950792 12.19995835 -9.88950792 12.19995835 -9.125 10.1875 C-7.75416045 7.52197865 -6.02447963 5.83014158 -3.875 3.75 C-3.15054688 3.04359375 -2.42609375 2.3371875 -1.6796875 1.609375 C-1.12539062 1.07828125 -0.57109375 0.5471875 0 0 Z " fill="#2D2D2D" transform="translate(162,76)"/>
<path d="M0 0 C3 1 3 1 4.25 3.375 C5.17250716 6.60377505 4.46887547 8.06224905 3 11 C-1.29 11 -5.58 11 -10 11 C-10 10.67 -10 10.34 -10 10 C-6.04 10 -2.08 10 2 10 C2 9.01 2 8.02 2 7 C1.34 7 0.68 7 0 7 C0 4.69 0 2.38 0 0 Z " fill="#E5E5E5" transform="translate(278,283)"/>
<path d="M0 0 C0 1.32 0 2.64 0 4 C1.32 4.33 2.64 4.66 4 5 C3.01 6.485 3.01 6.485 2 8 C-0.64 6.68 -3.28 5.36 -6 4 C-6 2.68 -6 1.36 -6 0 C-3.50907189 -1.24546405 -2.58919267 -0.7767578 0 0 Z " fill="#E9E9E9" transform="translate(107,272)"/>
<path d="M0 0 C0.66 0.33 1.32 0.66 2 1 C1.50628906 1.48210937 1.01257812 1.96421875 0.50390625 2.4609375 C-0.45708984 3.40839844 -0.45708984 3.40839844 -1.4375 4.375 C-2.07558594 5.00148437 -2.71367187 5.62796875 -3.37109375 6.2734375 C-5.07882176 7.91723061 -5.07882176 7.91723061 -6 10 C-6.66 10 -7.32 10 -8 10 C-8 10.66 -8 11.32 -8 12 C-8.99 12.66 -9.98 13.32 -11 14 C-11.66 14.99 -12.32 15.98 -13 17 C-13.33 15.68 -13.66 14.36 -14 13 C-13.319375 12.505 -12.63875 12.01 -11.9375 11.5 C-8.77145067 8.80548993 -6.21231908 5.88789354 -3.55078125 2.70703125 C-2 1 -2 1 0 0 Z " fill="#282828" transform="translate(32,160)"/>
<path d="M0 0 C4.875 3.625 4.875 3.625 6 7 C5.34 7 4.68 7 4 7 C4.33 8.98 4.66 10.96 5 13 C4.01 13.33 3.02 13.66 2 14 C1.01 13.01 0.02 12.02 -1 11 C-0.649375 10.484375 -0.29875 9.96875 0.0625 9.4375 C1.3615641 6.05993333 0.67217681 3.49531943 0 0 Z " fill="#181818" transform="translate(285,160)"/>
<path d="M0 0 C2.475 0.495 2.475 0.495 5 1 C5.625 3.375 5.625 3.375 6 6 C5.34 6.66 4.68 7.32 4 8 C2.68 8 1.36 8 0 8 C0 5.36 0 2.72 0 0 Z " fill="#F2F2F2" transform="translate(278,271)"/>
<path d="M0 0 C3.73487777 0.4979837 5.81237635 0.87491756 9 3 C8.67 4.32 8.34 5.64 8 7 C6.35 7 4.7 7 3 7 C2.67 5.35 2.34 3.7 2 2 C1.34 2 0.68 2 0 2 C0 1.34 0 0.68 0 0 Z " fill="#EFEFEF" transform="translate(71,282)"/>
<path d="M0 0 C0.99 0.33 1.98 0.66 3 1 C3 4.63 3 8.26 3 12 C0.60145094 9.91094114 -0.83687696 8.47771747 -1.875 5.4375 C-2 3 -2 3 0 0 Z " fill="#DCDCDC" transform="translate(445,270)"/>
<path d="M0 0 C0 4.16773987 -2.23864238 6.14082862 -5 9 C-6.6396721 10.36639342 -8.30327614 11.70513179 -10 13 C-11.0173873 13.98230498 -12.02596117 14.97469597 -13 16 C-13.66 15.34 -14.32 14.68 -15 14 C-14.01 13.67 -13.02 13.34 -12 13 C-11.731875 12.4225 -11.46375 11.845 -11.1875 11.25 C-9.7765735 8.57666558 -7.87785397 7.09600939 -5.53125 5.23828125 C-3.54231655 3.62988354 -1.77268432 1.84086449 0 0 Z " fill="#D9D9D9" transform="translate(179,73)"/>
<path d="M0 0 C7.26 0 14.52 0 22 0 C22 1.65 22 3.3 22 5 C20.02 5 18.04 5 16 5 C16.66 4.01 17.32 3.02 18 2 C12.06 1.67 6.12 1.34 0 1 C0 0.67 0 0.34 0 0 Z " fill="#121212" transform="translate(458,189)"/>
<path d="M0 0 C1.65 0.33 3.3 0.66 5 1 C5.66 3.31 6.32 5.62 7 8 C1.25 6.125 1.25 6.125 -1 5 C-0.67 3.35 -0.34 1.7 0 0 Z " fill="#E3E3E3" transform="translate(77,271)"/>
<path d="M0 0 C3.3 0 6.6 0 10 0 C8.02 0.99 8.02 0.99 6 2 C4.71553081 4.56893838 4.67022856 6.76576337 4.4375 9.625 C4.31181641 11.12933594 4.31181641 11.12933594 4.18359375 12.6640625 C4.12300781 13.43492187 4.06242188 14.20578125 4 15 C3.67 15 3.34 15 3 15 C3 11.37 3 7.74 3 4 C2.01 3.67 1.02 3.34 0 3 C0 2.01 0 1.02 0 0 Z " fill="#313131" transform="translate(185,267)"/>
<path d="M0 0 C1.98 0.99 3.96 1.98 6 3 C6 4.32 6 5.64 6 7 C3.625 7.125 3.625 7.125 1 7 C0.34 6.34 -0.32 5.68 -1 5 C-0.625 2.375 -0.625 2.375 0 0 Z " fill="#EEEEEE" transform="translate(223,282)"/>
<path d="M0 0 C3.63 0 7.26 0 11 0 C10.67 1.32 10.34 2.64 10 4 C9.77711499 6.58656673 9.58685615 9.15952778 9.4375 11.75 C9.39431641 12.44738281 9.35113281 13.14476562 9.30664062 13.86328125 C9.20110404 15.57531922 9.1001009 17.28763561 9 19 C8.67 19 8.34 19 8 19 C7.67 13.39 7.34 7.78 7 2 C4.69 1.67 2.38 1.34 0 1 C0 0.67 0 0.34 0 0 Z " fill="#444444" transform="translate(298,267)"/>
<path d="M0 0 C1.32 0 2.64 0 4 0 C3.67 2.64 3.34 5.28 3 8 C1.68 8 0.36 8 -1 8 C-0.67 5.36 -0.34 2.72 0 0 Z " fill="#181818" transform="translate(218,284)"/>
<path d="M0 0 C1.4540625 0.0309375 1.4540625 0.0309375 2.9375 0.0625 C2.375 1.9375 2.375 1.9375 0.9375 4.0625 C-2.6875 5.3125 -2.6875 5.3125 -6.0625 6.0625 C-6.0625 4.7425 -6.0625 3.4225 -6.0625 2.0625 C-5.4025 1.7325 -4.7425 1.4025 -4.0625 1.0625 C-3.0625 0.0625 -3.0625 0.0625 0 0 Z " fill="#030303" transform="translate(168.0625,266.9375)"/>
<path d="M0 0 C1.98 0 3.96 0 6 0 C6 1.32 6 2.64 6 4 C3.36 4.66 0.72 5.32 -2 6 C-1.34 4.02 -0.68 2.04 0 0 Z " fill="#080808" transform="translate(136,267)"/>
<path d="M0 0 C0.99 0.33 1.98 0.66 3 1 C-0.63 4.63 -4.26 8.26 -8 12 C-8.66 11.67 -9.32 11.34 -10 11 C-8.52116808 9.35386588 -7.04192523 7.70810092 -5.5625 6.0625 C-4.73878906 5.14597656 -3.91507812 4.22945313 -3.06640625 3.28515625 C-1 1 -1 1 0 0 Z " fill="#2B2B2B" transform="translate(85,105)"/>
<path d="M0 0 C2.97 0 5.94 0 9 0 C8.34 1.32 7.68 2.64 7 4 C5.02 4 3.04 4 1 4 C0.67 2.68 0.34 1.36 0 0 Z " fill="#070707" transform="translate(225,267)"/>
<path d="M0 0 C0.66 0.33 1.32 0.66 2 1 C2 1.66 2 2.32 2 3 C0.38542921 4.43581474 -1.29219075 5.80144783 -3 7.125 C-3.928125 7.84945312 -4.85625 8.57390625 -5.8125 9.3203125 C-6.534375 9.87460938 -7.25625 10.42890625 -8 11 C-8.66 10.67 -9.32 10.34 -10 10 C-6.7 6.7 -3.4 3.4 0 0 Z " fill="#CDCDCD" transform="translate(100,150)"/>
<path d="M0 0 C0.99 0 1.98 0 3 0 C3 2.64 3 5.28 3 8 C1.68 8 0.36 8 -1 8 C-1.625 5.125 -1.625 5.125 -2 2 C-1.34 1.34 -0.68 0.68 0 0 Z " fill="#020202" transform="translate(345,268)"/>
<path d="M0 0 C0 0.66 0 1.32 0 2 C0.99 2.66 1.98 3.32 3 4 C0.36 4.33 -2.28 4.66 -5 5 C-4.67 4.01 -4.34 3.02 -4 2 C-4.66 2 -5.32 2 -6 2 C-6.33 2.66 -6.66 3.32 -7 4 C-6.6875 2.0625 -6.6875 2.0625 -6 0 C-3 -1 -3 -1 0 0 Z " fill="#202020" transform="translate(339,268)"/>
<path d="M0 0 C0.99 0 1.98 0 3 0 C3 2.31 3 4.62 3 7 C1.35 7.33 -0.3 7.66 -2 8 C-1.34 5.36 -0.68 2.72 0 0 Z " fill="#232323" transform="translate(233,268)"/>
<path d="M0 0 C2.0625 0.4375 2.0625 0.4375 4 1 C4 1.99 4 2.98 4 4 C4.66 4.33 5.32 4.66 6 5 C3.625 6.0625 3.625 6.0625 1 7 C0.34 6.67 -0.32 6.34 -1 6 C-1.042721 4.33388095 -1.04063832 2.66617115 -1 1 C-0.67 0.67 -0.34 0.34 0 0 Z " fill="#E8E8E8" transform="translate(265,266)"/>
<path d="M0 0 C0.66 0 1.32 0 2 0 C2 2.31 2 4.62 2 7 C0.35 7.33 -1.3 7.66 -3 8 C-1.125 1.125 -1.125 1.125 0 0 Z " fill="#242424" transform="translate(110,268)"/>
<path d="M0 0 C1.32 0.66 2.64 1.32 4 2 C3.67 3.32 3.34 4.64 3 6 C1.35 6 -0.3 6 -2 6 C-2 5.01 -2 4.02 -2 3 C-1.34 2.67 -0.68 2.34 0 2 C0 1.34 0 0.68 0 0 Z " fill="#E9E9E9" transform="translate(101,283)"/>
<path d="M0 0 C0.99 0.33 1.98 0.66 3 1 C-0.33562767 5.51290803 -2.33289301 7.68206814 -8 9 C-7.04270084 7.87411986 -6.08412105 6.7493285 -5.125 5.625 C-4.59132812 4.99851562 -4.05765625 4.37203125 -3.5078125 3.7265625 C-2.38567993 2.44163349 -1.20628025 1.20628025 0 0 Z " fill="#D0D0D0" transform="translate(180,25)"/>
<path d="M0 0 C0.99 0 1.98 0 3 0 C1.83709195 3.48872415 0.86032391 4.09976864 -2.0625 6.1875 C-2.79597656 6.71730469 -3.52945313 7.24710938 -4.28515625 7.79296875 C-4.85105469 8.19128906 -5.41695312 8.58960938 -6 9 C-6.66 8.67 -7.32 8.34 -8 8 C-7.38125 7.7525 -6.7625 7.505 -6.125 7.25 C-3.61104784 5.77120461 -3.1465949 4.62078835 -2 2 C-1.34 1.34 -0.68 0.68 0 0 Z " fill="#323232" transform="translate(178,11)"/>
<path d="M0 0 C3.3 0 6.6 0 10 0 C10 0.99 10 1.98 10 3 C8.02 3.66 6.04 4.32 4 5 C4.33 3.68 4.66 2.36 5 1 C3.35 1.33 1.7 1.66 0 2 C0 1.34 0 0.68 0 0 Z " fill="#1C1C1C" transform="translate(312,267)"/>
<path d="M0 0 C0 3.58912412 -0.66436554 4.10857029 -3 6.6875 C-3.556875 7.31011719 -4.11375 7.93273437 -4.6875 8.57421875 C-5.120625 9.04472656 -5.55375 9.51523438 -6 10 C-6.66 9.34 -7.32 8.68 -8 8 C-7.04578192 6.85073734 -6.08647955 5.70569459 -5.125 4.5625 C-4.59132813 3.92441406 -4.05765625 3.28632813 -3.5078125 2.62890625 C-2 1 -2 1 0 0 Z " fill="#2D2D2D" transform="translate(87,153)"/>
<path d="M0 0 C0.99 0.33 1.98 0.66 3 1 C0.13463296 5.07763771 -2.43041625 7.02677065 -7 9 C-5.44499019 5.18315774 -2.96404505 2.80804268 0 0 Z " fill="#ECECEC" transform="translate(73,131)"/>
<path d="M0 0 C2.88575819 0.39803561 3.82189513 0.79009069 5.75 3.0625 C6.1625 3.701875 6.575 4.34125 7 5 C6.01 5.495 6.01 5.495 5 6 C3.02 4.68 1.04 3.36 -1 2 C-0.67 1.34 -0.34 0.68 0 0 Z " fill="#EAEAEA" transform="translate(250,140)"/>
<path d="M0 0 C0.66 0.99 1.32 1.98 2 3 C0.8553125 3.6496875 0.8553125 3.6496875 -0.3125 4.3125 C-2.58093768 5.73686785 -4.2199723 7.03260097 -6 9 C-6.66 8.34 -7.32 7.68 -8 7 C-5.36 4.69 -2.72 2.38 0 0 Z " fill="#222222" transform="translate(373,165)"/>
<path d="M0 0 C3.25543229 0.34879632 4.01873107 1.02133261 6.25 3.5625 C6.8275 4.366875 7.405 5.17125 8 6 C7.34 6.66 6.68 7.32 6 8 C1.125 3.375 1.125 3.375 0 0 Z " fill="#141414" transform="translate(254,131)"/>
<path d="M0 0 C0.66 0.33 1.32 0.66 2 1 C2 1.66 2 2.32 2 3 C1.01 3 0.02 3 -1 3 C-3.68767578 5.43750025 -3.68767578 5.43750025 -6 8 C-6 5 -6 5 -4.125 2.875 C-2 1 -2 1 0 0 Z " fill="#1D1D1D" transform="translate(163,267)"/>
<path d="M0 0 C0 4.38968456 -2.12805101 5.76905739 -5 9 C-6.32 8.67 -7.64 8.34 -9 8 C-6.03 5.36 -3.06 2.72 0 0 Z " fill="#E1E1E1" transform="translate(401,153)"/>
<path d="M0 0 C1.32 0 2.64 0 4 0 C4 0.99 4 1.98 4 3 C4.66 3.33 5.32 3.66 6 4 C4.68 4.99 3.36 5.98 2 7 C2 5.35 2 3.7 2 2 C1.34 2 0.68 2 0 2 C0 1.34 0 0.68 0 0 Z " fill="#040404" transform="translate(298,268)"/>
<path d="M0 0 C1.65 1.65 3.3 3.3 5 5 C4.34 5.66 3.68 6.32 3 7 C1.35 5.02 -0.3 3.04 -2 1 C-1.34 0.67 -0.68 0.34 0 0 Z " fill="#E2E2E2" transform="translate(299,123)"/>
<path d="M0 0 C0.66 1.32 1.32 2.64 2 4 C1.38125 4.28875 0.7625 4.5775 0.125 4.875 C-2.13325765 5.93720042 -2.13325765 5.93720042 -4 8 C-4.66 7.34 -5.32 6.68 -6 6 C-4.02 4.02 -2.04 2.04 0 0 Z " fill="#C9C9C9" transform="translate(106,98)"/>
<path d="M0 0 C0.33 0.66 0.66 1.32 1 2 C0.67 2.99 0.34 3.98 0 5 C0.66 5.33 1.32 5.66 2 6 C1.67 6.66 1.34 7.32 1 8 C0.01 7.67 -0.98 7.34 -2 7 C-2.6875 4.9375 -2.6875 4.9375 -3 3 C-2.34 3 -1.68 3 -1 3 C-0.67 2.01 -0.34 1.02 0 0 Z " fill="#E2E2E2" transform="translate(289,278)"/>
<path d="M0 0 C1.65 0 3.3 0 5 0 C5.33 1.32 5.66 2.64 6 4 C4.02 4.99 4.02 4.99 2 6 C2.33 4.68 2.66 3.36 3 2 C2.01 2 1.02 2 0 2 C0 1.34 0 0.68 0 0 Z " fill="#212121" transform="translate(281,267)"/>
<path d="M0 0 C0.66 1.32 1.32 2.64 2 4 C-0.63904371 5.41377341 -3.07120629 6.37240135 -6 7 C-5.34 6.01 -4.68 5.02 -4 4 C-3.34 4 -2.68 4 -2 4 C-1.34 2.68 -0.68 1.36 0 0 Z " fill="#383838" transform="translate(154,84)"/>
<path d="M0 0 C1.32 0.66 2.64 1.32 4 2 C3.01 2.33 2.02 2.66 1 3 C1 3.66 1 4.32 1 5 C0.01 5 -0.98 5 -2 5 C-2 4.01 -2 3.02 -2 2 C-1.34 2 -0.68 2 0 2 C0 1.34 0 0.68 0 0 Z " fill="#060606" transform="translate(73,270)"/>
<path d="M0 0 C1.32 0 2.64 0 4 0 C4 1.65 4 3.3 4 5 C3.01 5 2.02 5 1 5 C0.67 3.35 0.34 1.7 0 0 Z " fill="#010101" transform="translate(344,284)"/>
<path d="M0 0 C1.32 0 2.64 0 4 0 C4 1.65 4 3.3 4 5 C3.01 5 2.02 5 1 5 C0.67 3.35 0.34 1.7 0 0 Z " fill="#010101" transform="translate(144,284)"/>
<path d="M0 0 C0.66 0.33 1.32 0.66 2 1 C1.38125 1.598125 0.7625 2.19625 0.125 2.8125 C-2.13676954 5.00811144 -2.13676954 5.00811144 -4 8 C-4.33 6.68 -4.66 5.36 -5 4 C-3.35 2.68 -1.7 1.36 0 0 Z " fill="#1B1B1B" transform="translate(23,169)"/>
<path d="M0 0 C1.65 1.65 3.3 3.3 5 5 C4.01 5.33 3.02 5.66 2 6 C1.01 5.01 0.02 4.02 -1 3 C-0.67 2.01 -0.34 1.02 0 0 Z " fill="#E1E1E1" transform="translate(216,60)"/>
</svg>
